<svg xmlns="http://www.w3.org/2000/svg" id="mainsvg" width="555.98125" height="947.2" viewBox="-10 -10 505.4375 862"><defs><marker id="arrow" viewBox="0 0 10 10" refX="10" refY="5" markerWidth="5" markerHeight="5" orient="auto-start-reverse" fill="black"><path stroke="black" d="M 0 0 L 10 5 L 0 10 z"/></marker><marker id="Many" viewBox="0 0 16 16" refX="15" refY="8" markerWidth="15" markerHeight="15" orient="auto-start-reverse"><path stroke="black" d="M0 8H15M15 15L2 8L15 1" fill="none"/></marker><marker id="ZeroOrOne" viewBox="0 0 16 10" refX="15" refY="5" markerWidth="21" markerHeight="21" orient="auto-start-reverse"><path d="M9 5H16" stroke="black" fill="none"/><circle cx="5" cy="5" r="4.5" stroke="black" fill="#fff"/><path d="M12 0L12 10" stroke="black" fill="none"/></marker><marker id="OneOnlyOne" viewBox="0 0 10 14" refX="10" refY="7" markerWidth="13" markerHeight="13" orient="auto-start-reverse"><path d="M0 7H4M4 7H7M4 7V0M4 7V14M7 7H10M7 7V0M7 7V14" stroke="black" fill="none"/></marker><marker id="OneOrMany" viewBox="0 0 16 16" refX="15" refY="8" markerWidth="15" markerHeight="15" orient="auto-start-reverse"><path stroke="black" d="M2 1V15M2 8L15 15M2 8L15 1M2 8H0M2 8H15" fill="none"/></marker><marker id="ZeroOrMany" viewBox="0 0 25 16" refX="23" refY="8" markerWidth="25" markerHeight="25" orient="auto-start-reverse"><path d="M13 8H27M27 15L14 8L27 1" stroke="black" fill="none"/><path d="M13.5 7.5C13.5 10.7795 10.6254 13.5 7 13.5C3.37461 13.5 0.5 10.7795 0.5 7.5C0.5 4.22054 3.37461 1.5 7 1.5C10.6254 1.5 13.5 4.22054 13.5 7.5Z" stroke="black" fill="#fff"/></marker><marker id="aggregation" viewBox="0 0 10 6" refX="9.3" refY="2.8" markerWidth="23" markerHeight="15" orient="auto-start-reverse"><path stroke="black" fill="#fff" stroke-width="0.7" d="M1.01614 2.82609L5 0.574341L8.98386 2.82609L5 5.07783L1.01614 2.82609Z"/></marker><marker id="composition" viewBox="0 0 10 6" refX="9.7" refY="2.8" markerWidth="18" markerHeight="15" orient="auto-start-reverse"><path stroke="black" fill="black" d="M1.01614 2.82609L5 0.574341L8.98386 2.82609L5 5.07783L1.01614 2.82609Z"/></marker><marker id="implementation" viewBox="0 0 8 10" refX="8" refY="5" markerWidth="20" markerHeight="20" orient="auto-start-reverse"><path stroke="black" fill="#fff" stroke-width="0.7" d="M0.750001 1.10289L7.5 5L0.750001 8.89712L0.750001 1.10289Z"/></marker><marker id="dependency" viewBox="0 0 12 12" refX="11" refY="6" markerWidth="12" markerHeight="11" orient="auto-start-reverse"><path stroke="black" fill="#fff" d="M1 5.93162H10.886M10.886 5.93162L1 0.5M10.886 5.93162L1 11"/></marker><marker id="inheritance" viewBox="0 0 8 10" refX="8" refY="5" markerWidth="20" markerHeight="20" orient="auto-start-reverse"><path stroke="black" fill="#fff" stroke-width="0.7" d="M0.750001 1.10289L7.5 5L0.750001 8.89712L0.750001 1.10289Z"/></marker><marker id="association" viewBox="0 0 12 12" refX="11" refY="6" markerWidth="12" markerHeight="11" orient="auto-start-reverse"><path stroke="black" d="M1 5.93162H10.886M10.886 5.93162L1 0.5M10.886 5.93162L1 11"/></marker><filter id="shadowOLD" x="-50%" y="-50%" width="250%" height="250%"><feDropShadow flood-color="black" flood-opacity="0.3" dx="1" dy="1" stdDeviation="2"> </feDropShadow></filter><filter id="shadow-path" filterUnits="userSpaceOnUse" x="-10" y="-10" width="505.4375px" height="852px"><feDropShadow flood-color="black" flood-opacity="0.1" dx="1" dy="1" stdDeviation="1"> </feDropShadow></filter><filter id="shadow" filterUnits="userSpaceOnUse" x="-10" y="-10" width="605.4375px" height="952px"><feDropShadow flood-color="black" flood-opacity="0.1" dx="1" dy="1" stdDeviation="1"> </feDropShadow></filter></defs><rect x="-10" y="-10" width="505.4375" height="852" fill="#fff"/><g><path transform="rotate(0,0, 0) scale(1)" d="M175,205L229,205L229,205L250,205L250,205L279,205" stroke="black" stroke-dasharray="none" stroke-width="1.3" fill="none"/><text x="185" y="195" font-size="smaller" fill="black"/><text x="259" y="195" font-size="smaller" fill="black"/></g><g transform="translate(279.390625, 115)"><g transform="translate(0, 0)"><rect width="206.046875" height="180" stroke="black" fill="white" stroke-width="1" transform="translate(0, 0)" rx="0"/><g transform="translate(0, 0)"><g transform="translate(0, 0)"><rect width="206.046875" height="37" stroke="black" fill="white" stroke-width="1" transform="translate(0, 0)" rx="0"/><text fill="black" font-size="16" font-weight="bold" transform="translate(55.875, 10)" alignment-baseline="middle" font-family="Arial"><tspan x="0" dy="16" font-family="Arial" font-size="16" font-weight="bold">AttendQueue</tspan></text></g><g transform="translate(0, 37)"><rect width="2" height="3" stroke="none" fill="none" stroke-width="1.3" transform="translate(0, 0)" rx="2"/></g><g transform="translate(0, 40)"><g transform="translate(0, 0)"><rect width="206.046875" height="23" stroke="none" fill="none" stroke-width="1.3" transform="translate(0, 0)" rx="0"/><g transform="translate(0, 0)"><g transform="translate(0, 1.5)"><rect width="20" height="20" stroke="none" fill="none" stroke-width="1.3" transform="translate(0, 0)" rx="2"/></g><rect width="2" height="20" stroke="none" fill="none" stroke-width="1.3" transform="translate(20, 1.5)" rx="2"/><g transform="translate(22, 0)"><g transform="translate(0, 0)"><rect width="134.046875" height="23" stroke="none" fill="none" stroke-width="0" transform="translate(0, 0)" rx="0"/><text fill="black" font-size="16" font-weight="normal" transform="translate(3, 3)" alignment-baseline="middle" font-family="Arial"><tspan x="0" dy="16" font-family="Arial" font-size="16" font-weight="normal">veryPriorityQueue</tspan></text></g></g></g></g><g transform="translate(0, 23)"><rect width="206.046875" height="23" stroke="none" fill="none" stroke-width="1.3" transform="translate(0, 0)" rx="0"/><g transform="translate(0, 0)"><g transform="translate(0, 1.5)"><rect width="20" height="20" stroke="none" fill="none" stroke-width="1.3" transform="translate(0, 0)" rx="2"/></g><rect width="2" height="20" stroke="none" fill="none" stroke-width="1.3" transform="translate(20, 1.5)" rx="2"/><g transform="translate(22, 0)"><g transform="translate(0, 0)"><rect width="102.046875" height="23" stroke="none" fill="none" stroke-width="0" transform="translate(0, 0)" rx="0"/><text fill="black" font-size="16" font-weight="normal" transform="translate(3, 3)" alignment-baseline="middle" font-family="Arial"><tspan x="0" dy="16" font-family="Arial" font-size="16" font-weight="normal">priorityQueue</tspan></text></g></g></g></g><g transform="translate(0, 46)"><rect width="206.046875" height="23" stroke="none" fill="none" stroke-width="1.3" transform="translate(0, 0)" rx="0"/><g transform="translate(0, 0)"><g transform="translate(0, 1.5)"><rect width="20" height="20" stroke="none" fill="none" stroke-width="1.3" transform="translate(0, 0)" rx="2"/></g><rect width="2" height="20" stroke="none" fill="none" stroke-width="1.3" transform="translate(20, 1.5)" rx="2"/><g transform="translate(22, 0)"><g transform="translate(0, 0)"><rect width="102.078125" height="23" stroke="none" fill="none" stroke-width="0" transform="translate(0, 0)" rx="0"/><text fill="black" font-size="16" font-weight="normal" transform="translate(3, 3)" alignment-baseline="middle" font-family="Arial"><tspan x="0" dy="16" font-family="Arial" font-size="16" font-weight="normal">defaultQueue</tspan></text></g></g></g></g><g transform="translate(0, 69)"><rect width="206.046875" height="23" stroke="none" fill="none" stroke-width="1.3" transform="translate(0, 0)" rx="0"/><g transform="translate(0, 0)"><g transform="translate(0, 1.5)"><rect width="20" height="20" stroke="none" fill="none" stroke-width="1.3" transform="translate(0, 0)" rx="2"/></g><rect width="2" height="20" stroke="none" fill="none" stroke-width="1.3" transform="translate(20, 1.5)" rx="2"/><g transform="translate(22, 0)"><g transform="translate(0, 0)"><rect width="98.5234375" height="23" stroke="none" fill="none" stroke-width="0" transform="translate(0, 0)" rx="0"/><text fill="black" font-size="16" font-weight="normal" transform="translate(3, 3)" alignment-baseline="middle" font-family="Arial"><tspan x="0" dy="16" font-family="Arial" font-size="16" font-weight="normal">attendQueue</tspan></text></g></g></g></g></g><g transform="translate(0, 132)"><path d="M 0,7 L 206.046875 7" fill="none" stroke="black" stroke-dasharray="none" stroke-width="1"/><rect width="10" height="10" stroke="none" fill="none" stroke-width="1.3" transform="translate(0, 0)" rx="2"/></g><g transform="translate(0, 142)"><rect width="30" height="30" stroke="none" fill="none" stroke-width="1.3" transform="translate(0, 0)" rx="2"/></g><g transform="translate(0, 172)"><rect width="8" height="8" stroke="none" fill="none" stroke-width="1.3" transform="translate(0, 0)" rx="2"/></g></g></g></g><g transform="translate(4.01171875, 0)"><g transform="translate(0, 0)"><rect width="171.3671875" height="410" stroke="black" fill="white" stroke-width="1" transform="translate(0, 0)" rx="0"/><g transform="translate(0, 0)"><g transform="translate(0, 0)"><rect width="171.3671875" height="37" stroke="black" fill="white" stroke-width="1" transform="translate(0, 0)" rx="0"/><text fill="black" font-size="16" font-weight="bold" transform="translate(60.77734375, 10)" alignment-baseline="middle" font-family="Arial"><tspan x="0" dy="16" font-family="Arial" font-size="16" font-weight="bold">Patient</tspan></text></g><g transform="translate(0, 37)"><rect width="2" height="3" stroke="none" fill="none" stroke-width="1.3" transform="translate(0, 0)" rx="2"/></g><g transform="translate(0, 40)"><g transform="translate(0, 0)"><rect width="171.3671875" height="23" stroke="none" fill="none" stroke-width="1.3" transform="translate(0, 0)" rx="0"/><g transform="translate(0, 0)"><g transform="translate(0, 1.5)"><rect width="20" height="20" stroke="none" fill="none" stroke-width="1.3" transform="translate(0, 0)" rx="2"/></g><rect width="2" height="20" stroke="none" fill="none" stroke-width="1.3" transform="translate(20, 1.5)" rx="2"/><g transform="translate(22, 0)"><g transform="translate(0, 0)"><rect width="46.0234375" height="23" stroke="none" fill="none" stroke-width="0" transform="translate(0, 0)" rx="0"/><text fill="black" font-size="16" font-weight="normal" transform="translate(3, 3)" alignment-baseline="middle" font-family="Arial"><tspan x="0" dy="16" font-family="Arial" font-size="16" font-weight="normal">name</tspan></text></g></g></g></g><g transform="translate(0, 23)"><rect width="171.3671875" height="23" stroke="none" fill="none" stroke-width="1.3" transform="translate(0, 0)" rx="0"/><g transform="translate(0, 0)"><g transform="translate(0, 1.5)"><rect width="20" height="20" stroke="none" fill="none" stroke-width="1.3" transform="translate(0, 0)" rx="2"/></g><rect width="2" height="20" stroke="none" fill="none" stroke-width="1.3" transform="translate(20, 1.5)" rx="2"/><g transform="translate(22, 0)"><g transform="translate(0, 0)"><rect width="32.6953125" height="23" stroke="none" fill="none" stroke-width="0" transform="translate(0, 0)" rx="0"/><text fill="black" font-size="16" font-weight="normal" transform="translate(3, 3)" alignment-baseline="middle" font-family="Arial"><tspan x="0" dy="16" font-family="Arial" font-size="16" font-weight="normal">dob</tspan></text></g></g></g></g><g transform="translate(0, 46)"><rect width="171.3671875" height="23" stroke="none" fill="none" stroke-width="1.3" transform="translate(0, 0)" rx="0"/><g transform="translate(0, 0)"><g transform="translate(0, 1.5)"><rect width="20" height="20" stroke="none" fill="none" stroke-width="1.3" transform="translate(0, 0)" rx="2"/></g><rect width="2" height="20" stroke="none" fill="none" stroke-width="1.3" transform="translate(20, 1.5)" rx="2"/><g transform="translate(22, 0)"><g transform="translate(0, 0)"><rect width="99.3671875" height="23" stroke="none" fill="none" stroke-width="0" transform="translate(0, 0)" rx="0"/><text fill="black" font-size="16" font-weight="normal" transform="translate(3, 3)" alignment-baseline="middle" font-family="Arial"><tspan x="0" dy="16" font-family="Arial" font-size="16" font-weight="normal">maritalStatus</tspan></text></g></g></g></g><g transform="translate(0, 69)"><rect width="171.3671875" height="23" stroke="none" fill="none" stroke-width="1.3" transform="translate(0, 0)" rx="0"/><g transform="translate(0, 0)"><g transform="translate(0, 1.5)"><rect width="20" height="20" stroke="none" fill="none" stroke-width="1.3" transform="translate(0, 0)" rx="2"/></g><rect width="2" height="20" stroke="none" fill="none" stroke-width="1.3" transform="translate(20, 1.5)" rx="2"/><g transform="translate(22, 0)"><g transform="translate(0, 0)"><rect width="27.34375" height="23" stroke="none" fill="none" stroke-width="0" transform="translate(0, 0)" rx="0"/><text fill="black" font-size="16" font-weight="normal" transform="translate(3, 3)" alignment-baseline="middle" font-family="Arial"><tspan x="0" dy="16" font-family="Arial" font-size="16" font-weight="normal">cpf</tspan></text></g></g></g></g><g transform="translate(0, 92)"><rect width="171.3671875" height="23" stroke="none" fill="none" stroke-width="1.3" transform="translate(0, 0)" rx="0"/><g transform="translate(0, 0)"><g transform="translate(0, 1.5)"><rect width="20" height="20" stroke="none" fill="none" stroke-width="1.3" transform="translate(0, 0)" rx="2"/></g><rect width="2" height="20" stroke="none" fill="none" stroke-width="1.3" transform="translate(20, 1.5)" rx="2"/><g transform="translate(22, 0)"><g transform="translate(0, 0)"><rect width="20.2265625" height="23" stroke="none" fill="none" stroke-width="0" transform="translate(0, 0)" rx="0"/><text fill="black" font-size="16" font-weight="normal" transform="translate(3, 3)" alignment-baseline="middle" font-family="Arial"><tspan x="0" dy="16" font-family="Arial" font-size="16" font-weight="normal">rg</tspan></text></g></g></g></g><g transform="translate(0, 115)"><rect width="171.3671875" height="23" stroke="none" fill="none" stroke-width="1.3" transform="translate(0, 0)" rx="0"/><g transform="translate(0, 0)"><g transform="translate(0, 1.5)"><rect width="20" height="20" stroke="none" fill="none" stroke-width="1.3" transform="translate(0, 0)" rx="2"/></g><rect width="2" height="20" stroke="none" fill="none" stroke-width="1.3" transform="translate(20, 1.5)" rx="2"/><g transform="translate(22, 0)"><g transform="translate(0, 0)"><rect width="57.5859375" height="23" stroke="none" fill="none" stroke-width="0" transform="translate(0, 0)" rx="0"/><text fill="black" font-size="16" font-weight="normal" transform="translate(3, 3)" alignment-baseline="middle" font-family="Arial"><tspan x="0" dy="16" font-family="Arial" font-size="16" font-weight="normal">contact</tspan></text></g></g></g></g><g transform="translate(0, 138)"><rect width="171.3671875" height="23" stroke="none" fill="none" stroke-width="1.3" transform="translate(0, 0)" rx="0"/><g transform="translate(0, 0)"><g transform="translate(0, 1.5)"><rect width="20" height="20" stroke="none" fill="none" stroke-width="1.3" transform="translate(0, 0)" rx="2"/></g><rect width="2" height="20" stroke="none" fill="none" stroke-width="1.3" transform="translate(20, 1.5)" rx="2"/><g transform="translate(22, 0)"><g transform="translate(0, 0)"><rect width="55.8203125" height="23" stroke="none" fill="none" stroke-width="0" transform="translate(0, 0)" rx="0"/><text fill="black" font-size="16" font-weight="normal" transform="translate(3, 3)" alignment-baseline="middle" font-family="Arial"><tspan x="0" dy="16" font-family="Arial" font-size="16" font-weight="normal">gender</tspan></text></g></g></g></g><g transform="translate(0, 161)"><rect width="171.3671875" height="23" stroke="none" fill="none" stroke-width="1.3" transform="translate(0, 0)" rx="0"/><g transform="translate(0, 0)"><g transform="translate(0, 1.5)"><rect width="20" height="20" stroke="none" fill="none" stroke-width="1.3" transform="translate(0, 0)" rx="2"/></g><rect width="2" height="20" stroke="none" fill="none" stroke-width="1.3" transform="translate(20, 1.5)" rx="2"/><g transform="translate(22, 0)"><g transform="translate(0, 0)"><rect width="81.6171875" height="23" stroke="none" fill="none" stroke-width="0" transform="translate(0, 0)" rx="0"/><text fill="black" font-size="16" font-weight="normal" transform="translate(3, 3)" alignment-baseline="middle" font-family="Arial"><tspan x="0" dy="16" font-family="Arial" font-size="16" font-weight="normal">heatlhPlan</tspan></text></g></g></g></g><g transform="translate(0, 184)"><rect width="171.3671875" height="23" stroke="none" fill="none" stroke-width="1.3" transform="translate(0, 0)" rx="0"/><g transform="translate(0, 0)"><g transform="translate(0, 1.5)"><rect width="20" height="20" stroke="none" fill="none" stroke-width="1.3" transform="translate(0, 0)" rx="2"/></g><rect width="2" height="20" stroke="none" fill="none" stroke-width="1.3" transform="translate(20, 1.5)" rx="2"/><g transform="translate(22, 0)"><g transform="translate(0, 0)"><rect width="62.921875" height="23" stroke="none" fill="none" stroke-width="0" transform="translate(0, 0)" rx="0"/><text fill="black" font-size="16" font-weight="normal" transform="translate(3, 3)" alignment-baseline="middle" font-family="Arial"><tspan x="0" dy="16" font-family="Arial" font-size="16" font-weight="normal">address</tspan></text></g></g></g></g><g transform="translate(0, 207)"><rect width="171.3671875" height="23" stroke="none" fill="none" stroke-width="1.3" transform="translate(0, 0)" rx="0"/><g transform="translate(0, 0)"><g transform="translate(0, 1.5)"><rect width="20" height="20" stroke="none" fill="none" stroke-width="1.3" transform="translate(0, 0)" rx="2"/></g><rect width="2" height="20" stroke="none" fill="none" stroke-width="1.3" transform="translate(20, 1.5)" rx="2"/><g transform="translate(22, 0)"><g transform="translate(0, 0)"><rect width="61.140625" height="23" stroke="none" fill="none" stroke-width="0" transform="translate(0, 0)" rx="0"/><text fill="black" font-size="16" font-weight="normal" transform="translate(3, 3)" alignment-baseline="middle" font-family="Arial"><tspan x="0" dy="16" font-family="Arial" font-size="16" font-weight="normal">checkIn</tspan></text></g></g></g></g><g transform="translate(0, 230)"><rect width="171.3671875" height="23" stroke="none" fill="none" stroke-width="1.3" transform="translate(0, 0)" rx="0"/><g transform="translate(0, 0)"><g transform="translate(0, 1.5)"><rect width="20" height="20" stroke="none" fill="none" stroke-width="1.3" transform="translate(0, 0)" rx="2"/></g><rect width="2" height="20" stroke="none" fill="none" stroke-width="1.3" transform="translate(20, 1.5)" rx="2"/><g transform="translate(22, 0)"><g transform="translate(0, 0)"><rect width="48.6875" height="23" stroke="none" fill="none" stroke-width="0" transform="translate(0, 0)" rx="0"/><text fill="black" font-size="16" font-weight="normal" transform="translate(3, 3)" alignment-baseline="middle" font-family="Arial"><tspan x="0" dy="16" font-family="Arial" font-size="16" font-weight="normal">status</tspan></text></g></g></g></g><g transform="translate(0, 253)"><rect width="171.3671875" height="23" stroke="none" fill="none" stroke-width="1.3" transform="translate(0, 0)" rx="0"/><g transform="translate(0, 0)"><g transform="translate(0, 1.5)"><rect width="20" height="20" stroke="none" fill="none" stroke-width="1.3" transform="translate(0, 0)" rx="2"/></g><rect width="2" height="20" stroke="none" fill="none" stroke-width="1.3" transform="translate(20, 1.5)" rx="2"/><g transform="translate(22, 0)"><g transform="translate(0, 0)"><rect width="74.4765625" height="23" stroke="none" fill="none" stroke-width="0" transform="translate(0, 0)" rx="0"/><text fill="black" font-size="16" font-weight="normal" transform="translate(3, 3)" alignment-baseline="middle" font-family="Arial"><tspan x="0" dy="16" font-family="Arial" font-size="16" font-weight="normal">vitalSigns</tspan></text></g></g></g></g><g transform="translate(0, 276)"><rect width="171.3671875" height="23" stroke="none" fill="none" stroke-width="1.3" transform="translate(0, 0)" rx="0"/><g transform="translate(0, 0)"><g transform="translate(0, 1.5)"><rect width="20" height="20" stroke="none" fill="none" stroke-width="1.3" transform="translate(0, 0)" rx="2"/></g><rect width="2" height="20" stroke="none" fill="none" stroke-width="1.3" transform="translate(20, 1.5)" rx="2"/><g transform="translate(22, 0)"><g transform="translate(0, 0)"><rect width="61.125" height="23" stroke="none" fill="none" stroke-width="0" transform="translate(0, 0)" rx="0"/><text fill="black" font-size="16" font-weight="normal" transform="translate(3, 3)" alignment-baseline="middle" font-family="Arial"><tspan x="0" dy="16" font-family="Arial" font-size="16" font-weight="normal">severity</tspan></text></g></g></g></g><g transform="translate(0, 299)"><rect width="171.3671875" height="23" stroke="none" fill="none" stroke-width="1.3" transform="translate(0, 0)" rx="0"/><g transform="translate(0, 0)"><g transform="translate(0, 1.5)"><rect width="20" height="20" stroke="none" fill="none" stroke-width="1.3" transform="translate(0, 0)" rx="2"/></g><rect width="2" height="20" stroke="none" fill="none" stroke-width="1.3" transform="translate(20, 1.5)" rx="2"/><g transform="translate(22, 0)"><g transform="translate(0, 0)"><rect width="74.453125" height="23" stroke="none" fill="none" stroke-width="0" transform="translate(0, 0)" rx="0"/><text fill="black" font-size="16" font-weight="normal" transform="translate(3, 3)" alignment-baseline="middle" font-family="Arial"><tspan x="0" dy="16" font-family="Arial" font-size="16" font-weight="normal">simptoms</tspan></text></g></g></g></g></g><g transform="translate(0, 362)"><path d="M 0,7 L 171.3671875 7" fill="none" stroke="black" stroke-dasharray="none" stroke-width="1"/><rect width="10" height="10" stroke="none" fill="none" stroke-width="1.3" transform="translate(0, 0)" rx="2"/></g><g transform="translate(0, 372)"><rect width="30" height="30" stroke="none" fill="none" stroke-width="1.3" transform="translate(0, 0)" rx="2"/></g><g transform="translate(0, 402)"><rect width="8" height="8" stroke="none" fill="none" stroke-width="1.3" transform="translate(0, 0)" rx="2"/></g></g></g></g><g transform="translate(5.3359375, 510)"><g transform="translate(0, 0)"><rect width="168.71875" height="111" stroke="black" fill="white" stroke-width="1" transform="translate(0, 0)" rx="0"/><g transform="translate(0, 0)"><g transform="translate(0, 0)"><rect width="168.71875" height="37" stroke="black" fill="white" stroke-width="1" transform="translate(0, 0)" rx="0"/><text fill="black" font-size="16" font-weight="bold" transform="translate(37.9609375, 10)" alignment-baseline="middle" font-family="Arial"><tspan x="0" dy="16" font-family="Arial" font-size="16" font-weight="bold">TriageQueue</tspan></text></g><g transform="translate(0, 37)"><rect width="2" height="3" stroke="none" fill="none" stroke-width="1.3" transform="translate(0, 0)" rx="2"/></g><g transform="translate(0, 40)"><g transform="translate(0, 0)"><rect width="168.71875" height="23" stroke="none" fill="none" stroke-width="1.3" transform="translate(0, 0)" rx="0"/><g transform="translate(0, 0)"><g transform="translate(0, 1.5)"><rect width="20" height="20" stroke="none" fill="none" stroke-width="1.3" transform="translate(0, 0)" rx="2"/></g><rect width="2" height="20" stroke="none" fill="none" stroke-width="1.3" transform="translate(20, 1.5)" rx="2"/><g transform="translate(22, 0)"><g transform="translate(0, 0)"><rect width="96.71875" height="23" stroke="none" fill="none" stroke-width="0" transform="translate(0, 0)" rx="0"/><text fill="black" font-size="16" font-weight="normal" transform="translate(3, 3)" alignment-baseline="middle" font-family="Arial"><tspan x="0" dy="16" font-family="Arial" font-size="16" font-weight="normal">triagePointer</tspan></text></g></g></g></g></g><g transform="translate(0, 63)"><path d="M 0,7 L 168.71875 7" fill="none" stroke="black" stroke-dasharray="none" stroke-width="1"/><rect width="10" height="10" stroke="none" fill="none" stroke-width="1.3" transform="translate(0, 0)" rx="2"/></g><g transform="translate(0, 73)"><rect width="30" height="30" stroke="none" fill="none" stroke-width="1.3" transform="translate(0, 0)" rx="2"/></g><g transform="translate(0, 103)"><rect width="8" height="8" stroke="none" fill="none" stroke-width="1.3" transform="translate(0, 0)" rx="2"/></g></g></g></g><g transform="translate(0, 721)"><g transform="translate(0, 0)"><rect width="179.390625" height="111" stroke="black" fill="white" stroke-width="1" transform="translate(0, 0)" rx="0"/><g transform="translate(0, 0)"><g transform="translate(0, 0)"><rect width="179.390625" height="37" stroke="black" fill="white" stroke-width="1" transform="translate(0, 0)" rx="0"/><text fill="black" font-size="16" font-weight="bold" transform="translate(38.55078125, 10)" alignment-baseline="middle" font-family="Arial"><tspan x="0" dy="16" font-family="Arial" font-size="16" font-weight="bold">ConsultQueue</tspan></text></g><g transform="translate(0, 37)"><rect width="2" height="3" stroke="none" fill="none" stroke-width="1.3" transform="translate(0, 0)" rx="2"/></g><g transform="translate(0, 40)"><g transform="translate(0, 0)"><rect width="179.390625" height="23" stroke="none" fill="none" stroke-width="1.3" transform="translate(0, 0)" rx="0"/><g transform="translate(0, 0)"><g transform="translate(0, 1.5)"><rect width="20" height="20" stroke="none" fill="none" stroke-width="1.3" transform="translate(0, 0)" rx="2"/></g><rect width="2" height="20" stroke="none" fill="none" stroke-width="1.3" transform="translate(20, 1.5)" rx="2"/><g transform="translate(22, 0)"><g transform="translate(0, 0)"><rect width="107.390625" height="23" stroke="none" fill="none" stroke-width="0" transform="translate(0, 0)" rx="0"/><text fill="black" font-size="16" font-weight="normal" transform="translate(3, 3)" alignment-baseline="middle" font-family="Arial"><tspan x="0" dy="16" font-family="Arial" font-size="16" font-weight="normal">consultPointer</tspan></text></g></g></g></g></g><g transform="translate(0, 63)"><path d="M 0,7 L 179.390625 7" fill="none" stroke="black" stroke-dasharray="none" stroke-width="1"/><rect width="10" height="10" stroke="none" fill="none" stroke-width="1.3" transform="translate(0, 0)" rx="2"/></g><g transform="translate(0, 73)"><rect width="30" height="30" stroke="none" fill="none" stroke-width="1.3" transform="translate(0, 0)" rx="2"/></g><g transform="translate(0, 103)"><rect width="8" height="8" stroke="none" fill="none" stroke-width="1.3" transform="translate(0, 0)" rx="2"/></g></g></g></g></svg>